<?xml version="1.0" encoding="utf-8"?>
<!-- Generator: Adobe Illustrator 19.1.0, SVG Export Plug-In . SVG Version: 6.00 Build 0)  -->
<svg version="1.1" id="Layer_1" xmlns="http://www.w3.org/2000/svg" xmlns:xlink="http://www.w3.org/1999/xlink" x="0px" y="0px"
	 viewBox="0 0 102.7 102.7" style="enable-background:new 0 0 102.7 102.7;" xml:space="preserve">
<style type="text/css">
	.st0{fill:#FFFFFF;}
</style>
<path class="st0" d="M51.4,0C23,0,0,23,0,51.4s23,51.4,51.4,51.4c28.4,0,51.4-23,51.4-51.4S79.7,0,51.4,0z M58.7,15.9l-1.3,46.3
	H45.3l-1.4-46.3H58.7z M60,81.2c-0.5,1.1-1.2,2.1-2,3c-0.8,0.8-1.8,1.5-3,2s-2.3,0.7-3.6,0.7c-1.3,0-2.5-0.2-3.7-0.7
	c-1.1-0.5-2.1-1.2-3-2c-0.9-0.8-1.5-1.8-2-3C42.3,80,42,78.8,42,77.5c0-1.3,0.2-2.5,0.7-3.6s1.2-2.1,2-3c0.9-0.8,1.9-1.5,3-2
	c1.1-0.5,2.4-0.7,3.7-0.7c1.3,0,2.5,0.2,3.6,0.7s2.1,1.2,3,2c0.8,0.8,1.5,1.8,2,3s0.7,2.3,0.7,3.6C60.7,78.8,60.5,80,60,81.2z"/>
</svg>
